<?xml version="1.0" standalone="no"?>
<!DOCTYPE svg PUBLIC "-//W3C//DTD SVG 20010904//EN"
 "http://www.w3.org/TR/2001/REC-SVG-20010904/DTD/svg10.dtd">
<svg version="1.0" xmlns="http://www.w3.org/2000/svg"
 width="1280.000000pt" height="640.000000pt" viewBox="0 0 1280.000000 640.000000"
 preserveAspectRatio="xMidYMid meet">
<g transform="translate(0.000000,640.000000) scale(0.100000,-0.100000)"
fill="#000000" stroke="none">
<path d="M2670 6220 c-389 -35 -765 -147 -1085 -322 -434 -239 -829 -614
-1111 -1055 -232 -363 -388 -801 -438 -1233 -42 -366 -43 -423 -16 -695 63
-640 265 -1153 640 -1625 108 -136 376 -404 510 -510 403 -320 829 -504 1340
-581 131 -19 196 -23 415 -23 326 -1 510 22 789 99 639 175 1242 632 1651
1250 204 308 345 657 420 1035 10 47 22 91 27 98 8 9 432 12 2082 10 l2071 -3
5 -695 c5 -680 5 -696 26 -741 25 -54 77 -115 115 -135 22 -11 81 -14 289 -14
291 0 291 0 353 69 77 86 71 24 77 811 l5 705 179 3 c123 2 183 -1 192 -9 12
-10 14 -126 14 -698 0 -775 -4 -729 80 -805 86 -77 84 -77 487 -74 401 3 391
2 471 79 82 79 76 19 82 804 l5 700 65 8 c246 29 417 310 359 589 -29 139
-137 281 -258 341 l-66 32 -3312 3 -3313 2 -4 23 c-3 12 -18 92 -35 177 -121
627 -458 1212 -956 1663 -433 392 -895 612 -1460 697 -159 24 -534 35 -695 20z"/>
</g>
</svg>
